<svg height="511pt" viewBox="-84 1 511 511.99923" width="511pt" xmlns="http://www.w3.org/2000/svg"><path d="m119.734375 201.183594s-58.375.46875-107.761719-66.714844c-19.308594-26.265625-13.671875-63.210938 12.59375-82.519531 26.265625-19.304688 63.210938-13.667969 82.519532 12.597656 49.386718 67.183594 31.523437 122.761719 31.523437 122.761719zm0 0" fill="#00c67f"/><path d="m224.226562 201.183594s58.375.46875 107.765626-66.714844c19.304687-26.265625 13.667968-63.210938-12.597657-82.519531-26.265625-19.304688-63.210937-13.667969-82.519531 12.597656-49.386719 67.183594-31.523438 122.761719-31.523438 122.761719zm0 0" fill="#00c67f"/><path d="m159.042969 195.125s-52.277344-37.78125-52.277344-129.910156c0-36.015625 29.199219-65.214844 65.214844-65.214844s65.214843 29.199219 65.214843 65.214844c0 92.128906-52.277343 129.910156-52.277343 129.910156zm0 0" fill="#69d283"/><path d="m171.980469 183.703125c-4.269531 0-7.726563-3.460937-7.726563-7.726563v-107.65625c0-4.265624 3.457032-7.726562 7.726563-7.726562s7.726562 3.460938 7.726562 7.726562v107.65625c0 4.265626-3.460937 7.726563-7.726562 7.726563zm0 0" fill="#00c67f"/><path d="m118.910156 188.007812c-2.371094 0-4.714844-1.089843-6.230468-3.152343l-57.710938-78.503907c-2.527344-3.441406-1.789062-8.277343 1.648438-10.804687s8.273437-1.785156 10.800781 1.652344l57.714843 78.503906c2.523438 3.4375 1.785157 8.277344-1.652343 10.804687-1.375 1.011719-2.980469 1.5-4.570313 1.5zm0 0" fill="#69d283"/><path d="m225.050781 188.007812c-1.589843 0-3.191406-.488281-4.570312-1.503906-3.4375-2.527344-4.175781-7.363281-1.648438-10.800781l57.710938-78.507813c2.527343-3.4375 7.363281-4.175781 10.800781-1.648437s4.175781 7.363281 1.648438 10.800781l-57.710938 78.507813c-1.511719 2.0625-3.855469 3.152343-6.230469 3.152343zm0 0" fill="#69d283"/><path d="m171.980469 349.015625-123.554688 47.273437c22.449219 44.683594 59.367188 85.578126 108.503907 111.929688 9.402343 5.042969 20.699218 5.042969 30.101562 0 49.136719-26.351562 86.054688-67.246094 108.507812-111.929688zm0 0" fill="#faeed0"/><path d="m79.332031 396.289062 108.101563-41.359374-15.453125-5.914063-123.554688 47.273437c22.449219 44.683594 59.367188 85.578126 108.503907 111.929688 9.402343 5.042969 20.699218 5.042969 30.101562 0 .136719-.074219.269531-.148438.402344-.222656-48.933594-26.355469-85.714844-67.144532-108.101563-111.707032zm0 0" fill="#f6d8a0"/><path d="m320.628906 301.738281-148.648437 47.277344-148.648438-47.277344c-2.378906-77.546875 43.269531-144.199219 148.648438-144.199219 105.378906 0 151.027343 66.65625 148.648437 144.199219zm0 0" fill="#faeed0"/><path d="m54.238281 301.738281c-2.261719-73.640625 38.800781-137.453125 133.195313-143.691406-5.003906-.328125-10.148438-.507813-15.453125-.507813-105.378907 0-151.027344 66.65625-148.648438 144.199219l148.648438 47.277344 15.453125-4.914063zm0 0" fill="#f6d8a0"/><path d="m320.628906 301.738281c-.941406 30.960938-9.554687 63.660157-25.09375 94.550781h-247.109375c-15.539062-30.890624-24.152343-63.589843-25.09375-94.550781zm0 0" fill="#fc5c70"/><path d="m23.332031 301.738281c.941407 30.960938 9.554688 63.660157 25.09375 94.550781h30.90625c-15.539062-30.890624-24.152343-63.589843-25.09375-94.550781zm0 0" fill="#f8485e"/><path d="m247.550781 349.015625c0 41.738281-33.832031 75.570313-75.570312 75.570313s-75.570313-33.832032-75.570313-75.570313c0-41.734375 33.832032-75.570313 75.570313-75.570313s75.570312 33.835938 75.570312 75.570313zm0 0" fill="#ffd46a"/><path d="m214.769531 349.015625c0 23.632813-19.15625 42.789063-42.789062 42.789063-23.632813 0-42.789063-19.15625-42.789063-42.789063s19.15625-42.789063 42.789063-42.789063c23.632812 0 42.789062 19.15625 42.789062 42.789063zm0 0" fill="#fc5c70"/><g fill="#454f59"><path d="m99.660156 237.601562c-4.265625 0-7.722656-3.460937-7.722656-7.726562v-13.089844c0-4.265625 3.457031-7.726562 7.722656-7.726562 4.269532 0 7.726563 3.460937 7.726563 7.726562v13.089844c0 4.265625-3.457031 7.726562-7.726563 7.726562zm0 0"/><path d="m244.300781 237.601562c-4.269531 0-7.726562-3.460937-7.726562-7.726562v-13.089844c0-4.265625 3.457031-7.726562 7.726562-7.726562 4.265625 0 7.726563 3.460937 7.726563 7.726562v13.089844c0 4.265625-3.460938 7.726562-7.726563 7.726562zm0 0"/><path d="m171.980469 244.585938c-9.1875 0-17.8125-3.839844-23.667969-10.539063-2.808594-3.210937-2.480469-8.09375.734375-10.902344 3.214844-2.804687 8.09375-2.480469 10.902344.734375 2.917969 3.339844 7.304687 5.253906 12.03125 5.253906 4.726562 0 9.113281-1.914062 12.03125-5.253906 2.808593-3.214844 7.691406-3.542968 10.902343-.734375 3.214844 2.808594 3.542969 7.691407.734376 10.902344-5.855469 6.699219-14.480469 10.539063-23.667969 10.539063zm0 0"/></g></svg>